# xmcd
# 
# Track frame offsets:
#     150
#     18389
#     37003
#     53097
#     69946
#     82803
#     94386
#     107188
#     121093
#     142083
# 
# Disc length: 2099
# 
# Revision: 1
# Processed by: cddbd v1.5.2PL0 Copyright (c) Steve Scherf et al.
# Submitted via: fre:ac v1.0.31
# 
DISCID=8108310a
DTITLE=Charlotte Hatherley - New Worlds
DYEAR=2009
DGENRE=Alternative
TTITLE0=White
TTITLE1=Alexander
TTITLE2=Straight Lines
TTITLE3=New Worlds
TTITLE4=Firebird
TTITLE5=Full Circle
TTITLE6=Little Sahara
TTITLE7=Colours
TTITLE8=Cinnabar
TTITLE9=Wrong Notes
EXTD=
EXTT0=
EXTT1=
EXTT2=
EXTT3=
EXTT4=
EXTT5=
EXTT6=
EXTT7=
EXTT8=
EXTT9=
PLAYORDER=
